0
SECTION
2
HEADER
9
$INSUNITS
70
4
9
$ACADVER
1
AC1014
9
$HANDSEED
5
FFFF
0
ENDSEC
0
SECTION
2
TABLES
0
TABLE
2
VPORT
5
8
100
AcDbSymbolTable
0
ENDTAB
0
TABLE
2
LTYPE
5
5
100
AcDbSymbolTable
0
LTYPE
5
14
100
AcDbSymbolTableRecord
100
AcDbLinetypeTableRecord
2
BYBLOCK
70
0
0
LTYPE
5
15
100
AcDbSymbolTableRecord
100
AcDbLinetypeTableRecord
2
BYLAYER
70
0
0
ENDTAB
0
TABLE
2
LAYER
5
2
100
AcDbSymbolTable
70
2
0
LAYER
5
50
100
AcDbSymbolTableRecord
100
AcDbLayerTableRecord
2
0
70
0
6
CONTINUOUS
0
ENDTAB
0
TABLE
2
STYLE
5
3
100
AcDbSymbolTable
70
1
0
STYLE
5
11
100
AcDbSymbolTableRecord
100
AcDbTextStyleTableRecord
2
STANDARD
70
0
0
ENDTAB
0
TABLE
2
VIEW
5
6
100
AcDbSymbolTable
70
0
0
ENDTAB
0
TABLE
2
UCS
5
7
100
AcDbSymbolTable
70
0
0
ENDTAB
0
TABLE
2
APPID
5
9
100
AcDbSymbolTable
70
2
0
APPID
5
12
100
AcDbSymbolTableRecord
100
AcDbRegAppTableRecord
2
ACAD
70
0
0
ENDTAB
0
TABLE
2
DIMSTYLE
5
A
100
AcDbSymbolTable
70
1
0
ENDTAB
0
TABLE
2
BLOCK_RECORD
5
1
100
AcDbSymbolTable
70
1
0
BLOCK_RECORD
5
1F
100
AcDbSymbolTableRecord
100
AcDbBlockTableRecord
2
*MODEL_SPACE
0
BLOCK_RECORD
5
1B
100
AcDbSymbolTableRecord
100
AcDbBlockTableRecord
2
*PAPER_SPACE
0
ENDTAB
0
ENDSEC
0
SECTION
2
BLOCKS
0
BLOCK
5
20
100
AcDbEntity
100
AcDbBlockBegin
2
*MODEL_SPACE
0
ENDBLK
5
21
100
AcDbEntity
100
AcDbBlockEnd
0
BLOCK
5
1C
100
AcDbEntity
100
AcDbBlockBegin
2
*PAPER_SPACE
0
ENDBLK
5
1D
100
AcDbEntity
100
AcDbBlockEnd
0
ENDSEC
0
SECTION
2
ENTITIES
0
LINE
5
100
100
AcDbEntity
8
0
100
AcDbLine
10
43.500000000000007
20
220
30
0
11
45
21
220
31
0
0
LINE
5
101
100
AcDbEntity
8
0
100
AcDbLine
10
5.0000000000000009
20
220
30
0
11
45
21
220
31
0
0
LINE
5
102
100
AcDbEntity
8
0
100
AcDbLine
10
45
20
220
30
0
11
60.23809814453125
21
204.76190185546875
31
0
0
LINE
5
103
100
AcDbEntity
8
0
100
AcDbLine
10
60.23809814453125
20
204.76190185546875
30
0
11
115.34783935546876
21
122.73809051513673
31
0
0
LINE
5
104
100
AcDbEntity
8
0
100
AcDbLine
10
115.34783935546876
20
122.73809051513673
30
0
11
130.5859375
21
107.5
31
0
0
LINE
5
105
100
AcDbEntity
8
0
100
AcDbLine
10
130.5859375
20
107.5
30
0
11
152.5
21
107.5
31
0
0
LINE
5
106
100
AcDbEntity
8
0
100
AcDbLine
10
152.5
20
107.5
30
0
11
157.5
21
102.5
31
0
0
LINE
5
107
100
AcDbEntity
8
0
100
AcDbLine
10
157.5
20
102.5
30
0
11
157.5
21
5
31
0
0
LINE
5
108
100
AcDbEntity
8
0
100
AcDbLine
10
157.5
20
5
30
0
11
152.5
21
-1.2817678640480655e-14
31
0
0
LINE
5
109
100
AcDbEntity
8
0
100
AcDbLine
10
152.5
20
-1.2817678640480655e-14
30
0
11
72.5
21
7.1054273576010019e-15
31
0
0
LINE
5
110
100
AcDbEntity
8
0
100
AcDbLine
10
72.5
20
7.1054273576010019e-15
30
0
11
67.5
21
5
31
0
0
LINE
5
111
100
AcDbEntity
8
0
100
AcDbLine
10
67.5
20
5
30
0
11
67.5
21
55
31
0
0
LINE
5
112
100
AcDbEntity
8
0
100
AcDbLine
10
67.5
20
55
30
0
11
62.5
21
60
31
0
0
LINE
5
113
100
AcDbEntity
8
0
100
AcDbLine
10
62.5
20
60
30
0
11
4.9999999999999991
21
60
31
0
0
LINE
5
114
100
AcDbEntity
8
0
100
AcDbLine
10
4.9999999999999991
20
60
30
0
11
2.0326027712629268e-14
21
65
31
0
0
LINE
5
115
100
AcDbEntity
8
0
100
AcDbLine
10
2.0326027712629268e-14
20
65
30
0
11
2.8476715749998702e-14
21
215
31
0
0
LINE
5
116
100
AcDbEntity
8
0
100
AcDbLine
10
2.8476715749998702e-14
20
215
30
0
11
5.0000000000000009
21
220
31
0
0
CIRCLE
5
117
100
AcDbEntity
8
0
100
AcDbCircle
10
7.4967174530029297
20
212.49851226806641
30
0
40
1.9963976769848866
0
LINE
5
118
100
AcDbEntity
8
0
100
AcDbLine
10
9.246027946472168
20
213.47538757324219
30
0
11
9.3857555389404297
21
213.16627502441406
31
0
0
CIRCLE
5
119
100
AcDbEntity
8
0
100
AcDbCircle
10
42.49739933013916
20
212.49750518798831
30
0
40
1.9963983937677212
0
LINE
5
120
100
AcDbEntity
8
0
100
AcDbLine
10
43.821350097656257
20
214.00134277343753
30
0
11
44.056072235107422
21
213.7564392089844
31
0
0
CIRCLE
5
121
100
AcDbEntity
8
0
100
AcDbCircle
10
24.987645149230957
20
194.98816680908206
30
0
40
9.4828865176855324
0
LINE
5
122
100
AcDbEntity
8
0
100
AcDbLine
10
31.276409149169922
20
202.13139343261719
30
0
11
32.391338348388672
21
200.96809387207031
31
0
0
CIRCLE
5
123
100
AcDbEntity
8
0
100
AcDbCircle
10
7.4973990917205811
20
177.49750518798831
30
0
40
1.9963978773845981
0
LINE
5
124
100
AcDbEntity
8
0
100
AcDbLine
10
8.8213491439819336
20
179.0013427734375
30
0
11
9.0560712814331055
21
178.75643920898438
31
0
0
CIRCLE
5
125
100
AcDbEntity
8
0
100
AcDbCircle
10
42.49739933013916
20
177.49750518798831
30
0
40
1.9963983937677212
0
LINE
5
126
100
AcDbEntity
8
0
100
AcDbLine
10
43.821350097656257
20
179.0013427734375
30
0
11
44.056072235107422
21
178.75643920898438
31
0
0
CIRCLE
5
127
100
AcDbEntity
8
0
100
AcDbCircle
10
9.4978578090667725
20
155.49710845947266
30
0
40
1.9963950243931861
0
LINE
5
128
100
AcDbEntity
8
0
100
AcDbLine
10
10.548614501953127
20
157.20306396484375
30
0
11
10.821349143981934
21
157.0013427734375
31
0
0
CIRCLE
5
129
100
AcDbEntity
8
0
100
AcDbCircle
10
40.497858047485352
20
155.49710845947266
30
0
40
1.9963951661649473
0
LINE
5
130
100
AcDbEntity
8
0
100
AcDbLine
10
41.548614501953125
20
157.20306396484375
30
0
11
41.82135009765625
21
157.0013427734375
31
0
0
CIRCLE
5
131
100
AcDbEntity
8
0
100
AcDbCircle
10
24.997139930725098
20
139.9776725769043
30
0
40
12.477485049584235
0
LINE
5
132
100
AcDbEntity
8
0
100
AcDbLine
10
25.530515670776367
20
152.48873901367188
30
0
11
27.633489608764652
21
152.21945190429688
31
0
0
CIRCLE
5
133
100
AcDbEntity
8
0
100
AcDbCircle
10
42.49739933013916
20
139.99750518798828
30
0
40
1.9963983937677212
0
LINE
5
134
100
AcDbEntity
8
0
100
AcDbLine
10
43.821350097656257
20
141.5013427734375
30
0
11
44.056072235107422
21
141.25643920898438
31
0
0
CIRCLE
5
135
100
AcDbEntity
8
0
100
AcDbCircle
10
7.4973990917205811
20
139.99750518798828
30
0
40
1.9963978773845981
0
LINE
5
136
100
AcDbEntity
8
0
100
AcDbLine
10
8.8213491439819336
20
141.5013427734375
30
0
11
9.0560712814331055
21
141.25643920898438
31
0
0
CIRCLE
5
137
100
AcDbEntity
8
0
100
AcDbCircle
10
9.497398853302002
20
124.4975051879883
30
0
40
1.9963980495122924
0
LINE
5
138
100
AcDbEntity
8
0
100
AcDbLine
10
10.821349143981934
20
126.0013427734375
30
0
11
11.056071281433105
21
125.75643920898438
31
0
0
CIRCLE
5
139
100
AcDbEntity
8
0
100
AcDbCircle
10
40.497399330139167
20
124.4975051879883
30
0
40
1.9963983937677212
0
LINE
5
140
100
AcDbEntity
8
0
100
AcDbLine
10
41.82135009765625
20
126.0013427734375
30
0
11
42.056072235107422
21
125.75643920898438
31
0
0
CIRCLE
5
141
100
AcDbEntity
8
0
100
AcDbCircle
10
7.4970152378082275
20
102.49798393249513
30
0
40
1.9963978864578014
0
LINE
5
142
100
AcDbEntity
8
0
100
AcDbLine
10
9.0560712814331055
20
103.75643920898439
30
0
11
9.246027946472168
21
103.47539520263673
31
0
0
CIRCLE
5
143
100
AcDbEntity
8
0
100
AcDbCircle
10
42.497014999389648
20
102.49798393249513
30
0
40
1.9963988741180594
0
LINE
5
144
100
AcDbEntity
8
0
100
AcDbLine
10
44.056072235107422
20
103.75643920898439
30
0
11
44.246028900146484
21
103.47539520263673
31
0
0
CIRCLE
5
145
100
AcDbEntity
8
0
100
AcDbCircle
10
24.989824295043945
20
84.986244201660156
30
0
40
9.4828874902562141
0
LINE
5
146
100
AcDbEntity
8
0
100
AcDbLine
10
29.980918884277344
20
93.089530944824219
30
0
11
31.276409149169922
21
92.131385803222656
31
0
0
CIRCLE
5
147
100
AcDbEntity
8
0
100
AcDbCircle
10
7.4973990917205811
20
67.49751091003418
30
0
40
1.9963965576159262
0
LINE
5
148
100
AcDbEntity
8
0
100
AcDbLine
10
8.8213491439819336
20
69.001350402832031
30
0
11
9.0560712814331055
21
68.756439208984375
31
0
0
CIRCLE
5
149
100
AcDbEntity
8
0
100
AcDbCircle
10
42.497014999389648
20
67.497982025146484
30
0
40
1.9963978060513121
0
LINE
5
150
100
AcDbEntity
8
0
100
AcDbLine
10
44.056072235107422
20
68.756439208984375
30
0
11
44.246028900146484
21
68.475387573242188
31
0
0
CIRCLE
5
151
100
AcDbEntity
8
0
100
AcDbCircle
10
71.494474411010742
20
65.994705200195313
30
0
40
4.2423461850636999
0
LINE
5
152
100
AcDbEntity
8
0
100
AcDbLine
10
74.307868957519531
20
69.190361022949219
30
0
11
74.806655883789063
21
68.669937133789063
31
0
0
CIRCLE
5
153
100
AcDbEntity
8
0
100
AcDbCircle
10
100.48941802978517
20
66.001985549926758
30
0
40
4.2423504313409097
0
CIRCLE
5
154
100
AcDbEntity
8
0
100
AcDbCircle
10
120.49701499938965
20
69.497983932495117
30
0
40
1.9963988741180594
0
LINE
5
155
100
AcDbEntity
8
0
100
AcDbLine
10
122.0560760498047
20
70.756439208984375
30
0
11
122.24602508544922
21
70.475395202636719
31
0
0
CIRCLE
5
156
100
AcDbEntity
8
0
100
AcDbCircle
10
120.49651145935059
20
100.4990921020508
30
0
40
1.9963987576594808
0
LINE
5
157
100
AcDbEntity
8
0
100
AcDbLine
10
122.38575744628906
20
101.16627502441406
30
0
11
122.47122955322267
21
100.83799743652344
31
0
0
CIRCLE
5
158
100
AcDbEntity
8
0
100
AcDbCircle
10
151.49672317504883
20
100.49851608276369
30
0
40
1.9963939331693994
0
LINE
5
159
100
AcDbEntity
8
0
100
AcDbLine
10
153.24603271484375
20
101.4753875732422
30
0
11
153.38575744628906
21
101.16627502441406
31
0
0
CIRCLE
5
160
100
AcDbEntity
8
0
100
AcDbCircle
10
135.98660659790039
20
84.981901168823256
30
0
40
12.477483474265082
0
LINE
5
161
100
AcDbEntity
8
0
100
AcDbLine
10
142.5538330078125
20
95.644119262695313
30
0
11
144.25843811035156
21
94.383399963378906
31
0
0
CIRCLE
5
162
100
AcDbEntity
8
0
100
AcDbCircle
10
151.49925994873047
20
69.495559692382813
30
0
40
1.9963945717600684
0
CIRCLE
5
163
100
AcDbEntity
8
0
100
AcDbCircle
10
78.75
20
45
30
0
40
2.0370649785137367
0
CIRCLE
5
164
100
AcDbEntity
8
0
100
AcDbCircle
10
101.25
20
45
30
0
40
2.031089929635399
0
CIRCLE
5
165
100
AcDbEntity
8
0
100
AcDbCircle
10
123.75
20
45
30
0
40
2.0242771481180091
0
CIRCLE
5
166
100
AcDbEntity
8
0
100
AcDbCircle
10
146.24999237060547
20
45
30
0
40
2.0242771481180091
0
CIRCLE
5
167
100
AcDbEntity
8
0
100
AcDbCircle
10
146.24701690673828
20
4.9979827404022217
30
0
40
1.9963935993160586
0
LINE
5
168
100
AcDbEntity
8
0
100
AcDbLine
10
147.80607604980469
20
6.2564401626586914
30
0
11
147.99601745605469
21
5.9753899574279785
31
0
0
CIRCLE
5
169
100
AcDbEntity
8
0
100
AcDbCircle
10
123.74739646911621
20
4.9975073337554932
30
0
40
1.9963985873656787
0
LINE
5
170
100
AcDbEntity
8
0
100
AcDbLine
10
125.07135009765626
20
6.5013446807861328
30
0
11
125.30606842041017
21
6.2564401626586914
31
0
0
CIRCLE
5
171
100
AcDbEntity
8
0
100
AcDbCircle
10
101.24739456176758
20
4.9975073337554932
30
0
40
1.9963972103435119
0
LINE
5
172
100
AcDbEntity
8
0
100
AcDbLine
10
102.57134246826172
20
6.5013446807861328
30
0
11
102.80606842041017
21
6.2564401626586914
31
0
0
CIRCLE
5
173
100
AcDbEntity
8
0
100
AcDbCircle
10
78.747396469116211
20
4.9975073337554932
30
0
40
1.9963985873656787
0
LINE
5
174
100
AcDbEntity
8
0
100
AcDbLine
10
80.07135009765625
20
6.5013446807861328
30
0
11
80.306068420410156
21
6.2564401626586914
31
0
0
LINE
5
175
100
AcDbEntity
8
0
100
AcDbLine
10
7.0000000000000009
20
212.00000000000003
30
0
11
8
21
213
31
0
0
LINE
5
176
100
AcDbEntity
8
0
100
AcDbLine
10
7.0000000000000009
20
213
30
0
11
8
21
212.00000000000003
31
0
0
LINE
5
177
100
AcDbEntity
8
0
100
AcDbLine
10
7.0000000000000009
20
212.00000000000003
30
0
11
8
21
213
31
0
0
LINE
5
178
100
AcDbEntity
8
0
100
AcDbLine
10
7.0000000000000009
20
213
30
0
11
8
21
212.00000000000003
31
0
0
LINE
5
179
100
AcDbEntity
8
0
100
AcDbLine
10
42.00000062584877
20
212.00000315904617
30
0
11
43.000000640749931
21
213.00000317394733
31
0
0
LINE
5
180
100
AcDbEntity
8
0
100
AcDbLine
10
42.00000062584877
20
213.00000317394733
30
0
11
43.000000640749931
21
212.00000315904617
31
0
0
LINE
5
181
100
AcDbEntity
8
0
100
AcDbLine
10
24.000000000000004
20
196
30
0
11
26
21
194.00000000000003
31
0
0
LINE
5
182
100
AcDbEntity
8
0
100
AcDbLine
10
26
20
196
30
0
11
24.000000000000004
21
194.00000000000003
31
0
0
LINE
5
183
100
AcDbEntity
8
0
100
AcDbLine
10
7.0000000000000009
20
177
30
0
11
8
21
178
31
0
0
LINE
5
184
100
AcDbEntity
8
0
100
AcDbLine
10
7.0000000000000009
20
178
30
0
11
8
21
177
31
0
0
LINE
5
185
100
AcDbEntity
8
0
100
AcDbLine
10
42
20
178
30
0
11
43
21
177
31
0
0
LINE
5
186
100
AcDbEntity
8
0
100
AcDbLine
10
42
20
177
30
0
11
43
21
178
31
0
0
LINE
5
187
100
AcDbEntity
8
0
100
AcDbLine
10
7.0000000000000009
20
140.5
30
0
11
8
21
139.5
31
0
0
LINE
5
188
100
AcDbEntity
8
0
100
AcDbLine
10
7.0000000000000009
20
139.5
30
0
11
8
21
140.5
31
0
0
LINE
5
189
100
AcDbEntity
8
0
100
AcDbLine
10
42
20
140.5
30
0
11
43
21
139.5
31
0
0
LINE
5
190
100
AcDbEntity
8
0
100
AcDbLine
10
42
20
139.5
30
0
11
43
21
140.5
31
0
0
LINE
5
191
100
AcDbEntity
8
0
100
AcDbLine
10
9.0004587173461914
20
155.99960327148438
30
0
11
10.000458717346191
21
154.99960327148438
31
0
0
LINE
5
192
100
AcDbEntity
8
0
100
AcDbLine
10
9.0004587173461914
20
154.99960327148438
30
0
11
10.000458717346191
21
155.99960327148438
31
0
0
LINE
5
193
100
AcDbEntity
8
0
100
AcDbLine
10
40.000458955764771
20
154.99960327148438
30
0
11
41.000458955764778
21
155.99960327148438
31
0
0
LINE
5
194
100
AcDbEntity
8
0
100
AcDbLine
10
40.000458955764771
20
155.99960327148438
30
0
11
41.000458955764778
21
154.99960327148438
31
0
0
LINE
5
195
100
AcDbEntity
8
0
100
AcDbLine
10
40
20
125
30
0
11
41.000000000000007
21
124
31
0
0
LINE
5
196
100
AcDbEntity
8
0
100
AcDbLine
10
40
20
124
30
0
11
41.000000000000007
21
125
31
0
0
LINE
5
197
100
AcDbEntity
8
0
100
AcDbLine
10
8.9999997615814209
20
125
30
0
11
9.9999997615814209
21
124
31
0
0
LINE
5
198
100
AcDbEntity
8
0
100
AcDbLine
10
8.9999997615814209
20
124
30
0
11
9.9999997615814209
21
125
31
0
0
LINE
5
199
100
AcDbEntity
8
0
100
AcDbLine
10
24.49974083900452
20
140.48016738891602
30
0
11
25.499740839004517
21
139.48016738891602
31
0
0
LINE
5
200
100
AcDbEntity
8
0
100
AcDbLine
10
24.49974083900452
20
139.48016738891602
30
0
11
25.499740839004517
21
140.48016738891602
31
0
0
LINE
5
201
100
AcDbEntity
8
0
100
AcDbLine
10
7.0002977848052979
20
102.99947166442871
30
0
11
8.0002977848052979
21
101.99947166442871
31
0
0
LINE
5
202
100
AcDbEntity
8
0
100
AcDbLine
10
7.0002977848052979
20
101.99947166442871
30
0
11
8.0002977848052979
21
102.99947166442871
31
0
0
LINE
5
203
100
AcDbEntity
8
0
100
AcDbLine
10
42.000298410654075
20
101.9994748234749
30
0
11
43.000298425555236
21
102.99947483837606
31
0
0
LINE
5
204
100
AcDbEntity
8
0
100
AcDbLine
10
42.000298410654075
20
102.99947483837606
30
0
11
43.000298425555236
21
101.9994748234749
31
0
0
LINE
5
205
100
AcDbEntity
8
0
100
AcDbLine
10
26.000297784805298
20
85.999471664428725
30
0
11
24.000297784805298
21
83.999471664428711
31
0
0
LINE
5
206
100
AcDbEntity
8
0
100
AcDbLine
10
24.000297784805298
20
85.999471664428725
30
0
11
26.000297784805298
21
83.999471664428711
31
0
0
LINE
5
207
100
AcDbEntity
8
0
100
AcDbLine
10
42.000297784805298
20
67.999471664428711
30
0
11
43.000297784805298
21
66.999471664428711
31
0
0
LINE
5
208
100
AcDbEntity
8
0
100
AcDbLine
10
42.000297784805298
20
66.999471664428711
30
0
11
43.000297784805298
21
67.999471664428711
31
0
0
LINE
5
209
100
AcDbEntity
8
0
100
AcDbLine
10
7.0002977848052979
20
66.999471664428711
30
0
11
8.0002977848052979
21
67.999471664428711
31
0
0
LINE
5
210
100
AcDbEntity
8
0
100
AcDbLine
10
7.0002977848052979
20
67.999471664428711
30
0
11
8.0002977848052979
21
66.999471664428711
31
0
0
LINE
5
211
100
AcDbEntity
8
0
100
AcDbLine
10
7.0000000000000009
20
213
30
0
11
8
21
212.00000000000003
31
0
0
LINE
5
212
100
AcDbEntity
8
0
100
AcDbLine
10
7.0000000000000009
20
212.00000000000003
30
0
11
8
21
213
31
0
0
LINE
5
213
100
AcDbEntity
8
0
100
AcDbLine
10
42.00000062584877
20
212.00000315904617
30
0
11
43.000000640749931
21
213.00000317394733
31
0
0
LINE
5
214
100
AcDbEntity
8
0
100
AcDbLine
10
42.00000062584877
20
213.00000317394733
30
0
11
43.000000640749931
21
212.00000315904617
31
0
0
LINE
5
215
100
AcDbEntity
8
0
100
AcDbLine
10
26
20
196
30
0
11
24.000000000000004
21
194.00000000000003
31
0
0
LINE
5
216
100
AcDbEntity
8
0
100
AcDbLine
10
24.000000000000004
20
196
30
0
11
26
21
194.00000000000003
31
0
0
LINE
5
217
100
AcDbEntity
8
0
100
AcDbLine
10
42
20
178
30
0
11
43
21
177
31
0
0
LINE
5
218
100
AcDbEntity
8
0
100
AcDbLine
10
42
20
177
30
0
11
43
21
178
31
0
0
LINE
5
219
100
AcDbEntity
8
0
100
AcDbLine
10
7.0000000000000009
20
177
30
0
11
8
21
178
31
0
0
LINE
5
220
100
AcDbEntity
8
0
100
AcDbLine
10
7.0000000000000009
20
178
30
0
11
8
21
177
31
0
0
LINE
5
221
100
AcDbEntity
8
0
100
AcDbLine
10
70.997757196426392
20
66.496194839477539
30
0
11
71.997757196426392
21
65.496194839477539
31
0
0
LINE
5
222
100
AcDbEntity
8
0
100
AcDbLine
10
70.997757196426392
20
65.496194839477539
30
0
11
71.997757196426392
21
66.496194839477539
31
0
0
LINE
5
223
100
AcDbEntity
8
0
100
AcDbLine
10
99.997757196426406
20
66.496194839477539
30
0
11
100.99775719642639
21
65.496194839477539
31
0
0
LINE
5
224
100
AcDbEntity
8
0
100
AcDbLine
10
99.997757196426406
20
65.496194839477539
30
0
11
100.99775719642639
21
66.496194839477539
31
0
0
LINE
5
225
100
AcDbEntity
8
0
100
AcDbLine
10
120.00535416603088
20
69.992193222045898
30
0
11
121.00535416603088
21
68.992193222045898
31
0
0
LINE
5
226
100
AcDbEntity
8
0
100
AcDbLine
10
120.00535416603088
20
68.992193222045898
30
0
11
121.00535416603088
21
69.992193222045898
31
0
0
LINE
5
227
100
AcDbEntity
8
0
100
AcDbLine
10
120.00535416603088
20
68.992193222045898
30
0
11
121.00535416603088
21
69.992193222045898
31
0
0
LINE
5
228
100
AcDbEntity
8
0
100
AcDbLine
10
120.00535416603088
20
69.992193222045898
30
0
11
121.00535416603088
21
68.992193222045898
31
0
0
LINE
5
229
100
AcDbEntity
8
0
100
AcDbLine
10
151.0075991153717
20
68.989768981933594
30
0
11
152.0075991153717
21
69.989768981933594
31
0
0
LINE
5
230
100
AcDbEntity
8
0
100
AcDbLine
10
151.0075991153717
20
69.989768981933594
30
0
11
152.0075991153717
21
68.989768981933594
31
0
0
LINE
5
231
100
AcDbEntity
8
0
100
AcDbLine
10
151.0075991153717
20
68.989768981933594
30
0
11
152.0075991153717
21
69.989768981933594
31
0
0
LINE
5
232
100
AcDbEntity
8
0
100
AcDbLine
10
151.0075991153717
20
69.989768981933594
30
0
11
152.0075991153717
21
68.989768981933594
31
0
0
LINE
5
233
100
AcDbEntity
8
0
100
AcDbLine
10
135.48988938331604
20
85.483390808105483
30
0
11
136.48988938331604
21
84.483390808105469
31
0
0
LINE
5
234
100
AcDbEntity
8
0
100
AcDbLine
10
135.48988938331604
20
84.483390808105469
30
0
11
136.48988938331604
21
85.483390808105483
31
0
0
LINE
5
235
100
AcDbEntity
8
0
100
AcDbLine
10
135.48988938331604
20
85.483390808105483
30
0
11
136.48988938331604
21
84.483390808105469
31
0
0
LINE
5
236
100
AcDbEntity
8
0
100
AcDbLine
10
135.48988938331604
20
84.483390808105469
30
0
11
136.48988938331604
21
85.483390808105483
31
0
0
LINE
5
237
100
AcDbEntity
8
0
100
AcDbLine
10
151.00000596046448
20
101.00000572204591
30
0
11
152.00000596046448
21
100.00000572204591
31
0
0
LINE
5
238
100
AcDbEntity
8
0
100
AcDbLine
10
151.00000596046448
20
101.00000572204591
30
0
11
152.00000596046448
21
100.00000572204591
31
0
0
LINE
5
239
100
AcDbEntity
8
0
100
AcDbLine
10
151.00000596046448
20
100.00000572204591
30
0
11
152.00000596046448
21
101.00000572204591
31
0
0
LINE
5
240
100
AcDbEntity
8
0
100
AcDbLine
10
151.00000596046448
20
100.00000572204591
30
0
11
152.00000596046448
21
101.00000572204591
31
0
0
LINE
5
241
100
AcDbEntity
8
0
100
AcDbLine
10
120.00485062599182
20
99.993301391601577
30
0
11
121.00485062599184
21
100.99330139160158
31
0
0
LINE
5
242
100
AcDbEntity
8
0
100
AcDbLine
10
120.00485062599182
20
99.993301391601577
30
0
11
121.00485062599184
21
100.99330139160158
31
0
0
LINE
5
243
100
AcDbEntity
8
0
100
AcDbLine
10
120.00485062599182
20
100.99330139160158
30
0
11
121.00485062599184
21
99.993301391601577
31
0
0
LINE
5
244
100
AcDbEntity
8
0
100
AcDbLine
10
120.00485062599182
20
100.99330139160158
30
0
11
121.00485062599184
21
99.993301391601577
31
0
0
LINE
5
245
100
AcDbEntity
8
0
100
AcDbLine
10
145.7583315372467
20
45.494209289550788
30
0
11
146.7583315372467
21
44.494209289550781
31
0
0
LINE
5
246
100
AcDbEntity
8
0
100
AcDbLine
10
145.7583315372467
20
45.494209289550788
30
0
11
146.7583315372467
21
44.494209289550781
31
0
0
LINE
5
247
100
AcDbEntity
8
0
100
AcDbLine
10
145.7583315372467
20
44.494209289550781
30
0
11
146.7583315372467
21
45.494209289550788
31
0
0
LINE
5
248
100
AcDbEntity
8
0
100
AcDbLine
10
145.7583315372467
20
44.494209289550781
30
0
11
146.7583315372467
21
45.494209289550788
31
0
0
LINE
5
249
100
AcDbEntity
8
0
100
AcDbLine
10
145.75535607337952
20
4.4921920299530029
30
0
11
146.75535607337952
21
5.4921920299530038
31
0
0
LINE
5
250
100
AcDbEntity
8
0
100
AcDbLine
10
145.75535607337952
20
5.4921920299530038
30
0
11
146.75535607337952
21
4.4921920299530029
31
0
0
LINE
5
251
100
AcDbEntity
8
0
100
AcDbLine
10
145.75535607337952
20
5.4921920299530038
30
0
11
146.75535607337952
21
4.4921920299530029
31
0
0
LINE
5
252
100
AcDbEntity
8
0
100
AcDbLine
10
145.75535607337952
20
4.4921920299530029
30
0
11
146.75535607337952
21
5.4921920299530038
31
0
0
LINE
5
253
100
AcDbEntity
8
0
100
AcDbLine
10
123.25833153724672
20
45.494209289550788
30
0
11
124.2583315372467
21
44.494209289550781
31
0
0
LINE
5
254
100
AcDbEntity
8
0
100
AcDbLine
10
123.25833153724672
20
44.494209289550781
30
0
11
124.2583315372467
21
45.494209289550788
31
0
0
LINE
5
255
100
AcDbEntity
8
0
100
AcDbLine
10
123.25535607337953
20
4.4921920299530029
30
0
11
124.25535607337952
21
5.4921920299530038
31
0
0
LINE
5
256
100
AcDbEntity
8
0
100
AcDbLine
10
123.25535607337953
20
5.4921920299530038
30
0
11
124.25535607337952
21
4.4921920299530029
31
0
0
LINE
5
257
100
AcDbEntity
8
0
100
AcDbLine
10
100.75833153724672
20
45.494209289550788
30
0
11
101.7583315372467
21
44.494209289550781
31
0
0
LINE
5
258
100
AcDbEntity
8
0
100
AcDbLine
10
100.75833153724672
20
44.494209289550781
30
0
11
101.7583315372467
21
45.494209289550788
31
0
0
LINE
5
259
100
AcDbEntity
8
0
100
AcDbLine
10
100.75535607337953
20
4.4921920299530029
30
0
11
101.75535607337952
21
5.4921920299530038
31
0
0
LINE
5
260
100
AcDbEntity
8
0
100
AcDbLine
10
100.75535607337953
20
5.4921920299530038
30
0
11
101.75535607337952
21
4.4921920299530029
31
0
0
LINE
5
261
100
AcDbEntity
8
0
100
AcDbLine
10
78.258331537246704
20
45.494209289550788
30
0
11
79.258331537246704
21
44.494209289550781
31
0
0
LINE
5
262
100
AcDbEntity
8
0
100
AcDbLine
10
78.258331537246704
20
44.494209289550781
30
0
11
79.258331537246704
21
45.494209289550788
31
0
0
LINE
5
263
100
AcDbEntity
8
0
100
AcDbLine
10
78.255356073379517
20
4.4921920299530029
30
0
11
79.255356073379517
21
5.4921920299530038
31
0
0
LINE
5
264
100
AcDbEntity
8
0
100
AcDbLine
10
78.255356073379517
20
5.4921920299530038
30
0
11
79.255356073379517
21
4.4921920299530029
31
0
0
ENDSEC
0
SECTION
2
OBJECTS
0
DICTIONARY
5
C
100
AcDbDictionary
3
ACAD_GROUP
350
D
3
ACAD_MLINESTYLE
350
17
0
DICTIONARY
5
D
100
AcDbDictionary
0
DICTIONARY
5
1A
330
C
100
AcDbDictionary
0
DICTIONARY
5
17
100
AcDbDictionary
0
ENDSEC
0
EOF
